HIERARCHY
ROOT Hips
{
	OFFSET 0.000000 100.481300 0.000000
	CHANNELS 6 Xposition Yposition Zposition Xrotation Yrotation Zrotation 
	JOINT Spine
	{
		OFFSET -0.279200 12.230698 -2.892100
		CHANNELS 3 Xrotation Yrotation Zrotation
		JOINT Spine1
		{
			OFFSET -0.232667 10.192268 -1.242267
			CHANNELS 3 Xrotation Yrotation Zrotation
			JOINT Spine1_split
			{
				OFFSET -0.232667 10.192268 -1.242267
				CHANNELS 3 Xrotation Yrotation Zrotation
				JOINT Spine2
				{
					OFFSET -0.232667 10.192268 -1.242267
					CHANNELS 3 Xrotation Yrotation Zrotation
					JOINT Neck
					{
						OFFSET -0.418800 17.814194 8.416900
						CHANNELS 3 Xrotation Yrotation Zrotation
						JOINT Head
						{
							OFFSET 0.000000 7.031097 3.806800
							CHANNELS 3 Xrotation Yrotation Zrotation
							JOINT HeadTop_End
							{
								OFFSET 0.000000 24.646606 12.978600
								CHANNELS 3 Xrotation Yrotation Zrotation
								End Site
								{
									OFFSET 0.000000 0.000000 0.000000
								}
							}
						}
					}
					JOINT LeftShoulder
					{
						OFFSET 8.476499 7.247704 -3.868750
						CHANNELS 3 Xrotation Yrotation Zrotation
						JOINT LeftShoulder_split
						{
							OFFSET 8.476499 7.247704 -3.868750
							CHANNELS 3 Xrotation Yrotation Zrotation
							JOINT LeftArm
							{
								OFFSET 9.308998 -2.777710 0.208600
								CHANNELS 3 Xrotation Yrotation Zrotation
								JOINT LeftForeArm
								{
									OFFSET 29.972298 0.000000 0.000000
									CHANNELS 3 Xrotation Yrotation Zrotation
									JOINT LeftHand
									{
										OFFSET 26.026505 0.000000 0.000000
										CHANNELS 3 Xrotation Yrotation Zrotation
										JOINT LeftHandThumb1
										{
											OFFSET 12.240501 -7.147949 9.207150
											CHANNELS 3 Xrotation Yrotation Zrotation
											JOINT LeftHandThumb2
											{
												OFFSET 4.138618 -2.389435 2.389433
												CHANNELS 3 Xrotation Yrotation Zrotation
												JOINT LeftHandThumb3
												{
													OFFSET 2.726913 -1.574387 1.574386
													CHANNELS 3 Xrotation Yrotation Zrotation
													JOINT LeftHandThumb4
													{
														OFFSET 3.941010 -2.275345 2.275342
														CHANNELS 3 Xrotation Yrotation Zrotation
														End Site
														{
															OFFSET 0.000000 0.000000 0.000000
														}
													}
												}
											}
										}
										JOINT LeftHandIndex1
										{
											OFFSET 24.424698 -1.985611 5.953459
											CHANNELS 3 Xrotation Yrotation Zrotation
											JOINT LeftHandIndex2
											{
												OFFSET 6.426697 0.000000 0.000000
												CHANNELS 3 Xrotation Yrotation Zrotation
												JOINT LeftHandIndex3
												{
													OFFSET 5.337898 0.000000 0.000000
													CHANNELS 3 Xrotation Yrotation Zrotation
													JOINT LeftHandIndex4
													{
														OFFSET 4.409401 0.000000 0.000000
														CHANNELS 3 Xrotation Yrotation Zrotation
														End Site
														{
															OFFSET 0.000000 0.000000 0.000000
														}
													}
												}
											}
										}
										JOINT LeftHandMiddle1
										{
											OFFSET 23.810104 0.000000 0.000000
											CHANNELS 3 Xrotation Yrotation Zrotation
											JOINT LeftHandMiddle2
											{
												OFFSET 7.176498 0.000000 0.000000
												CHANNELS 3 Xrotation Yrotation Zrotation
												JOINT LeftHandMiddle3
												{
													OFFSET 6.774902 0.000000 0.000000
													CHANNELS 3 Xrotation Yrotation Zrotation
													JOINT LeftHandMiddle4
													{
														OFFSET 5.403328 0.000000 0.000000
														CHANNELS 3 Xrotation Yrotation Zrotation
														End Site
														{
															OFFSET 0.000000 0.000000 0.000000
														}
													}
												}
											}
										}
										JOINT LeftHandRing1
										{
											OFFSET 22.908401 -0.839279 -6.020567
											CHANNELS 3 Xrotation Yrotation Zrotation
											JOINT LeftHandRing2
											{
												OFFSET 6.337502 0.000000 0.000000
												CHANNELS 3 Xrotation Yrotation Zrotation
												JOINT LeftHandRing3
												{
													OFFSET 5.779297 0.000000 0.000000
													CHANNELS 3 Xrotation Yrotation Zrotation
													JOINT LeftHandRing4
													{
														OFFSET 4.965698 0.000000 0.000000
														CHANNELS 3 Xrotation Yrotation Zrotation
														End Site
														{
															OFFSET 0.000000 0.000000 0.000000
														}
													}
												}
											}
										}
										JOINT LeftHandPinky1
										{
											OFFSET 20.037003 -1.530319 -10.950146
											CHANNELS 3 Xrotation Yrotation Zrotation
											JOINT LeftHandPinky2
											{
												OFFSET 5.254700 0.000000 0.000000
												CHANNELS 3 Xrotation Yrotation Zrotation
												JOINT LeftHandPinky3
												{
													OFFSET 4.810204 0.000000 0.000000
													CHANNELS 3 Xrotation Yrotation Zrotation
													JOINT LeftHandPinky4
													{
														OFFSET 3.647202 0.000000 0.000000
														CHANNELS 3 Xrotation Yrotation Zrotation
														End Site
														{
															OFFSET 0.000000 0.000000 0.000000
														}
													}
												}
											}
										}
									}
								}
							}
						}
					}
					JOINT RightShoulder
					{
						OFFSET -7.570500 7.247704 -3.868750
						CHANNELS 3 Xrotation Yrotation Zrotation
						JOINT RightShoulder_split
						{
							OFFSET -7.570500 7.247704 -3.868750
							CHANNELS 3 Xrotation Yrotation Zrotation
							JOINT RightArm
							{
								OFFSET -9.308998 -2.777710 0.208500
								CHANNELS 3 Xrotation Yrotation Zrotation
								JOINT RightForeArm
								{
									OFFSET -29.972300 0.000000 0.000000
									CHANNELS 3 Xrotation Yrotation Zrotation
									JOINT RightHand
									{
										OFFSET -26.026505 0.000000 0.000000
										CHANNELS 3 Xrotation Yrotation Zrotation
										JOINT RightHandThumb1
										{
											OFFSET -12.240601 -7.148026 9.207092
											CHANNELS 3 Xrotation Yrotation Zrotation
											JOINT RightHandThumb2
											{
												OFFSET -4.138618 -2.389435 2.389433
												CHANNELS 3 Xrotation Yrotation Zrotation
												JOINT RightHandThumb3
												{
													OFFSET -2.726974 -1.574417 1.574421
													CHANNELS 3 Xrotation Yrotation Zrotation
													JOINT RightHandThumb4
													{
														OFFSET -3.941010 -2.275345 2.275343
														CHANNELS 3 Xrotation Yrotation Zrotation
														End Site
														{
															OFFSET 0.000000 0.000000 0.000000
														}
													}
												}
											}
										}
										JOINT RightHandIndex1
										{
											OFFSET -24.424698 -1.985657 5.953444
											CHANNELS 3 Xrotation Yrotation Zrotation
											JOINT RightHandIndex2
											{
												OFFSET -6.426697 0.000000 0.000000
												CHANNELS 3 Xrotation Yrotation Zrotation
												JOINT RightHandIndex3
												{
													OFFSET -5.337898 0.000000 0.000000
													CHANNELS 3 Xrotation Yrotation Zrotation
													JOINT RightHandIndex4
													{
														OFFSET -4.409401 0.000000 0.000000
														CHANNELS 3 Xrotation Yrotation Zrotation
														End Site
														{
															OFFSET 0.000000 0.000000 0.000000
														}
													}
												}
											}
										}
										JOINT RightHandMiddle1
										{
											OFFSET -23.810097 0.000000 0.000000
											CHANNELS 3 Xrotation Yrotation Zrotation
											JOINT RightHandMiddle2
											{
												OFFSET -7.176498 0.000000 0.000000
												CHANNELS 3 Xrotation Yrotation Zrotation
												JOINT RightHandMiddle3
												{
													OFFSET -6.774902 0.000000 0.000000
													CHANNELS 3 Xrotation Yrotation Zrotation
													JOINT RightHandMiddle4
													{
														OFFSET -5.403328 0.000000 0.000000
														CHANNELS 3 Xrotation Yrotation Zrotation
														End Site
														{
															OFFSET 0.000000 0.000000 0.000000
														}
													}
												}
											}
										}
										JOINT RightHandRing1
										{
											OFFSET -22.908302 -0.839325 -6.020576
											CHANNELS 3 Xrotation Yrotation Zrotation
											JOINT RightHandRing2
											{
												OFFSET -6.337502 0.000000 0.000000
												CHANNELS 3 Xrotation Yrotation Zrotation
												JOINT RightHandRing3
												{
													OFFSET -5.779297 0.000000 0.000000
													CHANNELS 3 Xrotation Yrotation Zrotation
													JOINT RightHandRing4
													{
														OFFSET -4.965698 0.000000 0.000000
														CHANNELS 3 Xrotation Yrotation Zrotation
														End Site
														{
															OFFSET 0.000000 0.000000 0.000000
														}
													}
												}
											}
										}
										JOINT RightHandPinky1
										{
											OFFSET -20.037003 -1.530334 -10.950259
											CHANNELS 3 Xrotation Yrotation Zrotation
											JOINT RightHandPinky2
											{
												OFFSET -5.254700 0.000000 0.000000
												CHANNELS 3 Xrotation Yrotation Zrotation
												JOINT RightHandPinky3
												{
													OFFSET -4.810204 0.000000 0.000000
													CHANNELS 3 Xrotation Yrotation Zrotation
													JOINT RightHandPinky4
													{
														OFFSET -3.647202 0.000000 0.000000
														CHANNELS 3 Xrotation Yrotation Zrotation
														End Site
														{
															OFFSET 0.000000 0.000000 0.000000
														}
													}
												}
											}
										}
									}
								}
							}
						}
					}
				}
			}
		}
	}
	JOINT LeftUpLeg
	{
		OFFSET 15.427100 -6.655098 0.678600
		CHANNELS 3 Xrotation Yrotation Zrotation
		JOINT LeftLeg
		{
			OFFSET 4.081073 -39.591068 13.024000
			CHANNELS 3 Xrotation Yrotation Zrotation
			JOINT LeftFoot
			{
				OFFSET -4.081074 -37.707932 -15.979700
				CHANNELS 3 Xrotation Yrotation Zrotation
				JOINT LeftToeBase
				{
					OFFSET 5.346399 -15.068900 20.645000
					CHANNELS 3 Xrotation Yrotation Zrotation
					JOINT LeftToe_End
					{
						OFFSET 2.754700 0.931300 11.300900
						CHANNELS 3 Xrotation Yrotation Zrotation
						End Site
						{
							OFFSET 0.000000 0.000000 0.000000
						}
					}
				}
			}
		}
	}
	JOINT RightUpLeg
	{
		OFFSET -15.569500 -6.655098 0.678600
		CHANNELS 3 Xrotation Yrotation Zrotation
		JOINT RightLeg
		{
			OFFSET -4.081825 -39.591045 13.023800
			CHANNELS 3 Xrotation Yrotation Zrotation
			JOINT RightFoot
			{
				OFFSET 4.081824 -37.707954 -15.979600
				CHANNELS 3 Xrotation Yrotation Zrotation
				JOINT RightToeBase
				{
					OFFSET -5.346400 -15.068900 20.645000
					CHANNELS 3 Xrotation Yrotation Zrotation
					JOINT RightToe_End
					{
						OFFSET -2.754700 0.931300 11.300900
						CHANNELS 3 Xrotation Yrotation Zrotation
						End Site
						{
							OFFSET 0.000000 0.000000 0.000000
						}
					}
				}
			}
		}
	}
}
MOTION
Frames: 4
Frame Time: 0.016667
-1.458347 93.313492 1.806548 -6.526922 7.454441 -1.104146 2.708899 1.594716 3.106170 2.229757 0.462799 2.709335 0.000000 0.000000 0.000000 1.815967 0.462783 2.663381 12.069589 -2.397796 -0.979292 1.367183 -8.878460 -6.544920 -0.000001 0.000000 0.000000 0.980235 -16.729753 -12.817463 0.000000 0.000000 0.000000 1.380166 -1.285203 -71.138695 0.000003 -0.000001 -0.000013 -34.595543 -2.769045 -5.684777 -0.945032 2.085477 4.986310 11.826379 25.404986 17.117651 -13.812404 3.560487 9.013176 0.000000 -0.000000 -0.000002 0.084271 -0.924055 -8.185785 0.267791 1.752618 -17.372876 0.057677 0.820895 -8.037371 -0.000002 0.000001 0.000001 -0.073345 2.742588 -16.488399 0.269696 1.758710 -17.435299 0.301535 1.857009 -18.444487 -0.000001 -0.000000 0.000001 0.084983 3.528580 -21.560617 0.386257 2.093841 -20.901992 0.282936 1.800317 -17.861730 0.000001 -0.000000 0.000003 0.961162 5.610178 -27.583162 0.269777 1.758976 -17.437953 0.242693 1.670345 -16.532881 -0.000000 0.000000 0.000001 0.966137 8.437345 16.887347 0.000000 0.000000 0.000000 28.204739 8.686314 58.059743 -0.000006 3.688148 -0.000009 -18.173163 -1.917483 9.747780 -22.530622 4.903165 4.908364 9.518495 -27.760660 -21.071087 5.457347 -23.437459 -6.234854 -0.000001 -0.000002 0.000002 1.062300 -0.350878 19.899445 1.041856 -2.937734 39.046993 0.321175 -1.701140 21.381532 0.000001 -0.000002 -0.000001 0.380998 -4.016468 23.477874 1.260459 -3.188026 43.136548 0.727012 -2.500577 32.417594 0.000001 0.000000 -0.000001 -0.717281 -1.494730 23.600438 0.643370 -2.363856 30.447091 0.567369 -2.229618 28.550703 0.000001 0.000001 0.000000 1.085904 -5.686135 22.733443 0.336825 -1.740593 21.902849 0.310212 -1.672887 21.009283 -0.000000 -0.000003 -0.000001 -15.927385 15.303029 12.935476 23.060658 0.950018 4.741187 -3.389952 -12.231846 -11.375886 -5.376458 0.000008 0.000003 -0.000000 0.000000 -0.000000 5.185800 -9.418768 4.253861 18.781473 -7.784309 -5.700612 -15.733460 -18.146643 5.481662 -6.948372 -0.000007 0.000001 -0.000000 0.000000 0.000000 
-1.395703 93.429390 1.790587 -6.289283 6.919775 -1.183743 2.684790 1.568652 3.091347 2.274833 0.425906 2.707982 0.000000 0.000000 0.000000 1.839811 0.425763 2.655625 11.829170 -2.244497 -0.934816 1.105651 -8.174215 -6.247968 -0.000000 0.000000 -0.000000 0.974911 -16.800882 -12.868813 0.000000 0.000000 0.000000 1.435871 -0.692811 -71.334304 0.000001 -0.000000 0.000000 -33.995593 -2.404731 -5.539992 -0.740813 2.177766 4.903558 11.791454 25.381051 17.236276 -13.838954 3.597883 9.036814 -0.000001 -0.000000 -0.000002 0.101974 -0.894337 -8.243470 0.267741 1.752499 -17.371597 0.057662 0.820762 -8.036125 -0.000000 0.000000 0.000001 -0.055502 2.807225 -16.539192 0.269555 1.758272 -17.430916 0.301384 1.856551 -18.439767 -0.000003 0.000002 -0.000000 0.092928 3.552175 -21.630316 0.386231 2.093770 -20.901257 0.282883 1.800151 -17.860087 0.000002 -0.000000 0.000003 0.984304 5.638666 -27.641101 0.269933 1.759481 -17.443113 0.242839 1.670834 -16.537809 -0.000001 0.000000 -0.000003 0.974202 8.465967 16.811915 0.000000 0.000000 0.000000 28.086906 7.872538 58.190432 -0.000007 3.162835 0.000009 -16.303851 -3.021910 9.938310 -22.320003 4.616024 2.964460 9.813065 -27.713930 -20.187903 4.764101 -23.407139 -6.786969 0.000002 -0.000000 -0.000004 1.148881 -0.266912 17.459125 0.984709 -2.865929 37.918236 0.298745 -1.642728 20.612732 -0.000000 -0.000000 -0.000000 0.390229 -4.036143 21.065224 1.179154 -3.099108 41.653875 0.685715 -2.434397 31.458547 0.000001 0.000000 -0.000001 -0.617050 -1.495118 21.700918 0.595696 -2.280877 29.270509 0.522069 -2.144325 27.363568 -0.000001 0.000002 -0.000001 1.015398 -5.750887 19.977492 0.318385 -1.694012 21.287425 0.292535 -1.626108 20.394926 -0.000000 0.000001 0.000001 -15.848573 15.344392 12.891682 22.805023 0.793612 4.666062 -3.320278 -11.562409 -11.309366 -5.365365 -0.000003 0.000003 -0.000000 0.000001 0.000000 4.920276 -9.441184 4.085130 18.569981 -7.811441 -5.641276 -15.506456 -17.535141 5.545490 -6.952404 -0.000005 0.000001 -0.000000 -0.000002 -0.000000 
-1.336819 93.540710 1.765535 -6.051817 6.342369 -1.279488 2.664564 1.551638 3.080602 2.323627 0.402818 2.709164 0.000000 0.000000 0.000000 1.868223 0.402405 2.651739 11.576150 -2.092930 -0.883111 0.830124 -7.486982 -5.921342 0.000000 0.000000 0.000000 0.973021 -16.881875 -12.893317 0.000000 0.000000 0.000000 1.489839 -0.193288 -71.539114 -0.000002 -0.000001 0.000018 -33.441422 -2.085267 -5.380677 -0.610931 2.223753 4.844126 11.771019 25.366862 17.305773 -13.852453 3.618602 9.046414 0.000002 -0.000003 0.000000 0.109644 -0.882558 -8.256114 0.267707 1.752364 -17.370339 0.057639 0.820636 -8.034929 -0.000000 0.000002 -0.000000 -0.045306 2.842771 -16.552350 0.269400 1.757777 -17.425694 0.301203 1.856017 -18.434332 -0.000000 0.000002 -0.000000 0.096608 3.562969 -21.660792 0.386219 2.093741 -20.900966 0.282853 1.800044 -17.858991 -0.000003 -0.000001 0.000001 0.994177 5.653263 -27.663465 0.269996 1.759668 -17.445024 0.242890 1.671003 -16.539563 -0.000001 -0.000002 -0.000001 0.974403 8.574772 16.795626 0.000000 0.000000 0.000000 27.644525 6.868317 58.342117 -0.000010 2.537505 0.000009 -14.582071 -4.211719 10.110753 -21.901220 4.412082 1.458864 9.977242 -27.585608 -19.715633 3.995918 -23.458925 -7.260561 0.000000 0.000002 0.000001 1.225525 -0.253443 15.752081 0.931941 -2.796958 36.850028 0.278560 -1.588023 19.896425 -0.000001 -0.000002 -0.000001 0.391776 -4.052723 19.475854 1.103362 -3.011858 40.232065 0.647588 -2.370995 30.548988 -0.000002 -0.000000 0.000000 -0.553188 -1.507918 20.499322 0.554142 -2.205146 28.208632 0.482763 -2.066649 26.293773 -0.000000 0.000001 0.000001 0.940690 -5.715200 18.308481 0.302338 -1.652252 20.737759 0.277141 -1.584120 19.845528 -0.000000 -0.000003 -0.000001 -15.781048 15.382704 12.863223 22.567981 0.621365 4.601876 -3.256740 -10.841295 -11.240984 -5.353484 -0.000005 0.000003 -0.000000 -0.000001 -0.000000 4.637703 -9.458297 3.924596 18.365323 -7.843862 -5.569965 -15.274057 -16.882322 5.601187 -6.960359 -0.000006 0.000000 0.000000 -0.000000 -0.000000 
-1.282272 93.644691 1.732522 -5.817649 5.733800 -1.392097 2.647710 1.540712 3.075067 2.374961 0.388700 2.715269 0.000000 0.000000 0.000000 1.900021 0.387846 2.652640 11.317115 -1.943500 -0.825331 0.529279 -6.811788 -5.583146 0.000000 -0.000000 0.000000 0.974775 -16.968720 -12.889544 0.000000 0.000000 0.000000 1.560687 0.185207 -71.747804 0.000001 -0.000000 0.000000 -32.970607 -1.827785 -5.223724 -0.552300 2.228806 4.808830 11.764090 25.361976 17.329363 -13.854439 3.624074 9.044350 0.000001 -0.000002 -0.000000 0.108346 -0.885829 -8.232173 0.267666 1.752256 -17.369227 0.057621 0.820534 -8.033854 -0.000001 -0.000000 0.000001 -0.041764 2.853408 -16.534409 0.269273 1.757369 -17.421552 0.301067 1.855611 -18.430138 -0.000001 0.000001 0.000004 0.096941 3.563576 -21.656013 0.386234 2.093781 -20.901349 0.282844 1.800027 -17.858773 -0.000001 0.000002 0.000001 0.994144 5.654190 -27.655644 0.269983 1.759629 -17.444636 0.242881 1.670960 -16.539081 -0.000003 0.000000 0.000001 0.968009 8.730538 16.828628 0.000000 0.000000 0.000000 26.972482 5.818287 58.456119 0.000000 1.888792 -0.000015 -13.025001 -5.397800 10.195382 -21.244168 4.286114 0.432279 10.018548 -27.381873 -19.635713 3.177351 -23.577876 -7.636051 0.000000 -0.000000 0.000001 1.298124 -0.326187 14.800262 0.883092 -2.730633 35.836896 0.260298 -1.536675 19.227041 0.000001 -0.000002 0.000000 0.397415 -4.079441 18.748818 1.034159 -2.928218 38.896493 0.613460 -2.312269 29.713918 0.000002 -0.000001 -0.000000 -0.516333 -1.548221 20.026347 0.518669 -2.137744 27.272452 0.449366 -1.997707 25.352224 0.000003 0.000002 0.000001 0.884375 -5.600510 17.801949 0.288142 -1.614253 20.239362 0.263504 -1.545869 19.346565 0.000002 0.000001 -0.000002 -15.730052 15.418935 12.855128 22.357176 0.438491 4.549332 -3.204614 -10.088211 -11.172917 -5.341524 -0.000000 0.000000 -0.000001 -0.000001 0.000000 4.343585 -9.468119 3.778269 18.170451 -7.881681 -5.486673 -15.040814 -16.201578 5.646812 -6.971401 -0.000002 -0.000002 -0.000001 -0.000000 -0.000000 
